# xmcd
# Track frame offsets:
# 150
# 21535
# 48053
# 134635
# 160820
# 197926
#
# Disc length: 3992 seconds
# Revision: 0
# Processed by: cddbd v1.4PL0 Copyright (c) Steve Scherf et al.
# Submitted via: VisiTrax 2.9.5.181 - For more info visit www.synapsa.com
#
DISCID=520f9606
DTITLE=Johnny Winter - Live konserthuset i Stockholm
DYEAR=1971
DGENRE=Blues/Rock
TTITLE0=Goodmorning little school girl
TTITLE1=Rock´n roll hootchie coo
TTITLE2=Be careful with a fool
TTITLE3=Jumping Jack Flash
TTITLE4=Mean town blues
TTITLE5=Great balls of fire/Whole lotta shaking going on
EXTD=
EXTT0=
EXTT1=
EXTT2=
EXTT3=
EXTT4=
EXTT5=
PLAYORDER=
